# xmcd CD database file
# Copyright (C) 1997 Ti Kan
# 
# Track frame offsets:
#     182
#     13860
#     28247
#     52610
#     66057
#     85560
#     104047
#     118250
#     132367
#     149185
#     164247
#     179047
#     193080
#     206330
#     221420
#     235565
#     254855
#     277115
#     290255
#     305962
# 
# Disc length: 4343 seconds
# 
# Revision: 1
# Processed by: cddbd v1.4b41PL1 Copyright (c) Steve Scherf et al.
# Submitted via: DiscPlay 4.0.4
# 
DISCID=4710f514
DTITLE=Memphis Roots - The Best Of Memphis Roots
DYEAR=1900
DGENRE=
TTITLE0=Just Call Me Lonesome
TTITLE1=Two Steppin' Mind
TTITLE2=If I Could Find An Angel
TTITLE3=I Thought Canade Was Cold
TTITLE4=Neon Moon
TTITLE5=Run For The Border
TTITLE6=Boot Scootin' Boogie
TTITLE7=Spanish Burgundy
TTITLE8=Wher'm I Gonna Live
TTITLE9=Get Into Reggae Cowboy
TTITLE10=She Don't Know She's Beautiful
TTITLE11=Johnny 'O'
TTITLE12=Sing Together
TTITLE13=Twinkle, Twinkle Lucky Star
TTITLE14=Swingin'
TTITLE15=Why Don't You Call Me
TTITLE16=Sweet Red Wine
TTITLE17=A Country Boy (Who Rolled The Rock Away)
TTITLE18=What I Didn't Do
TTITLE19=Steamy Windows
EXTD=
EXTT0=
EXTT1=
EXTT2=
EXTT3=
EXTT4=
EXTT5=
EXTT6=
EXTT7=
EXTT8=
EXTT9=
EXTT10=
EXTT11=
EXTT12=
EXTT13=
EXTT14=
EXTT15=
EXTT16=
EXTT17=
EXTT18=
EXTT19=
PLAYORDER=
